# xmcd
#
# Track frame offsets: 
#        182
#        17655
#        32480
#        47477
#        61722
#        78240
#        97027
#        113740
#        131407
#        143830
#
# Disc length: 2174 seconds
#
# Revision: 2
# Processed by: cddbd v1.5.2PL0 Copyright (c) Steve Scherf et al.
# Submitted via: ExactAudioCopy v0.99pb5
#
DISCID=73087c0a
DTITLE=Bobby Bland - Dreamer
DYEAR=1900
DGENRE=
TTITLE0=Ain't No Love in The Heart of The City
TTITLE1=I Wouldn't Treat A Dog (The Way You Treated Me)
TTITLE2=Lovin' on Borrowed Time
TTITLE3=When You Come to The End of Your Road
TTITLE4=I Ain't Gonna Be The First to Cry
TTITLE5=Dreamer
TTITLE6=Yolanda
TTITLE7=Twenty-Four Hour Blues
TTITLE8=Cold Day in Hell
TTITLE9=Who's Foolin' Who
EXTD=
EXTT0=
EXTT1=
EXTT2=
EXTT3=
EXTT4=
EXTT5=
EXTT6=
EXTT7=
EXTT8=
EXTT9=
PLAYORDER=
